<mxfile host="app.diagrams.net" modified="2023-04-24T11:35:27.050Z" agent="Mozilla/5.0 (Windows NT 10.0; Win64; x64) AppleWebKit/537.36 (KHTML, like Gecko) Chrome/110.0.0.0 YaBrowser/23.3.2.806 Yowser/2.5 Safari/537.36" version="21.1.9" etag="qmhOLNhm5q4WPDvDqHt1" type="github">
  <diagram name="Страница 1" id="xUMVCpgkLv-RNLvxcG1n">
    <mxGraphModel>
      <root>
        <mxCell id="0" />
        <mxCell id="1" parent="0" />
      </root>
    </mxGraphModel>
  </diagram>
</mxfile>
